<?xml version="1.0" standalone="no"?>
<!DOCTYPE svg PUBLIC "-//W3C//DTD SVG 20010904//EN"
 "http://www.w3.org/TR/2001/REC-SVG-20010904/DTD/svg10.dtd">
<svg version="1.0" xmlns="http://www.w3.org/2000/svg"
 width="700.000000pt" height="700.000000pt" viewBox="0 0 700.000000 700.000000"
 preserveAspectRatio="xMidYMid meet">
<metadata>
Created by potrace 1.14, written by Peter Selinger 2001-2017
</metadata>
<g transform="translate(0.000000,700.000000) scale(0.100000,-0.100000)"
fill="#000000" stroke="none">
<path d="M3128 6995 c-2 -2 -62 -6 -134 -9 -72 -4 -142 -9 -155 -11 -13 -2
-63 -6 -111 -10 -49 -3 -96 -8 -105 -9 -10 -2 -45 -7 -78 -11 -32 -4 -66 -8
-75 -10 -8 -1 -42 -6 -75 -10 -32 -3 -62 -8 -65 -10 -3 -1 -25 -6 -50 -9 -60
-8 -88 -14 -195 -37 -312 -68 -571 -154 -797 -265 -98 -48 -231 -122 -263
-146 -5 -4 -57 -42 -114 -84 -352 -261 -587 -619 -695 -1057 -40 -158 -42
-169 -56 -282 -27 -220 -30 -597 -4 -730 2 -11 6 -41 9 -67 5 -41 13 -79 44
-218 5 -19 20 -69 34 -110 152 -442 478 -756 992 -952 102 -39 189 -68 193
-64 2 3 -8 33 -22 68 -32 80 -70 229 -86 333 -13 84 -17 324 -7 410 32 274
129 493 290 655 169 171 468 317 772 376 100 19 125 24 158 29 l39 5 -33 -57
c-18 -32 -37 -64 -42 -71 -6 -7 -20 -32 -32 -55 -18 -35 -175 -309 -204 -357
-11 -18 -166 -285 -202 -349 -14 -25 -69 -120 -121 -211 -138 -238 -490 -850
-631 -1095 -66 -115 -135 -235 -153 -265 -30 -51 -439 -763 -512 -891 l-31
-55 790 0 c435 1 792 -1 794 -4 2 -3 -9 -26 -23 -52 -41 -71 -156 -271 -167
-290 -5 -9 -17 -29 -26 -45 -8 -15 -75 -131 -149 -258 -73 -126 -142 -246
-152 -265 -11 -19 -72 -125 -135 -235 -64 -110 -118 -203 -120 -208 -2 -4 319
-6 714 -5 706 3 718 3 728 23 8 17 50 89 90 157 6 9 20 34 31 55 12 21 102
177 201 348 98 171 208 361 244 422 35 62 66 113 69 113 3 0 13 -15 24 -33 10
-17 95 -166 190 -330 94 -163 179 -312 189 -330 43 -75 221 -384 234 -404 l13
-23 716 0 715 0 -24 43 c-27 47 -107 187 -442 767 -311 538 -315 544 -305 550
4 3 362 5 794 4 l785 0 -28 50 c-15 28 -70 123 -121 211 -51 88 -104 180 -118
205 -14 25 -57 99 -95 165 -38 66 -83 145 -100 175 -17 30 -45 79 -64 108 -18
29 -33 55 -33 58 0 3 -31 58 -69 122 -71 122 -398 687 -437 757 -12 22 -79
139 -150 260 -70 121 -144 249 -164 285 -20 36 -46 82 -58 102 -51 89 -449
779 -483 838 -20 36 -33 66 -28 68 7 3 95 -14 232 -43 61 -13 183 -51 266 -82
352 -131 584 -352 687 -657 77 -225 90 -541 33 -803 -20 -93 -57 -212 -81
-260 -6 -13 -9 -25 -7 -28 6 -5 194 60 274 94 410 178 682 421 842 752 65 134
120 311 139 444 1 11 7 49 13 85 28 174 31 604 5 735 -2 11 -7 40 -10 65 -20
161 -74 363 -139 523 -229 568 -700 958 -1430 1186 -180 56 -458 120 -589 136
-27 3 -51 7 -55 9 -3 2 -37 7 -74 11 -37 3 -77 8 -87 10 -16 3 -63 8 -185 21
-16 1 -70 6 -120 10 -49 3 -110 8 -135 10 -54 5 -887 13 -892 9z m-272 -3724
l30 -1 0 -604 c-1 -332 -5 -608 -9 -612 -5 -5 -66 -9 -136 -9 l-128 0 1 610 0
610 25 5 c22 4 72 4 217 1z m1520 0 c7 -1 10 -186 10 -613 l-1 -612 -135 0
-135 0 -1 608 c-1 572 0 608 17 614 14 6 156 7 245 3z"/>
</g>
</svg>
