<svg version="1" xmlns="http://www.w3.org/2000/svg" width="1280" height="1280" viewBox="0 0 960.000000 960.000000"><path d="M451.5 1.1C358 6.2 271.3 33.3 200 79.8 111.3 137.5 53.7 220.5 40.1 310.2c-4.9 31.9-4.9 56.8 0 88.6 9.2 60.3 39.6 120 85.9 168.6 7.7 8.1 13.2 11.6 18.5 11.6 4.5 0 10.9-3.4 13.6-7.1l2.4-3.4v-32c0-34.3.4-38.3 6.1-60.9 10.1-40.1 33.9-80.9 65.9-113.2 42.9-43.1 99.6-73.6 163.6-87.9 15.8-3.5 19.9-4.1 19.9-2.8 0 .5-69.8 105.4-155 233.3-143.2 214.8-155.1 232.9-155.6 237.5-.7 6.6 2.5 13 8.2 16.2l3.9 2.3h95.3c52.3 0 95.2.2 95.2.5s-25.7 39-57.1 86.2l-57.1 85.6.4 6.3c.3 4.7 1 7 3 9.6 5.5 7.2.8 6.9 87.5 6.6l77.8-.3 5.5-2.6c3-1.5 7.2-4.2 9.2-6 2.1-1.9 25.6-36.2 52.3-76.4 26.7-40.2 48.9-73.1 49.3-73.2.4-.1 22.8 32.9 49.7 73.4 30.7 46 50.4 74.8 52.9 76.9 2.1 1.8 5.9 4.3 8.5 5.6l4.6 2.3 78.5.2 78.5.3 4-2.3c7.4-4.2 10.7-14.6 6.9-21.9-.9-1.8-26.4-40.3-56.6-85.6-30.2-45.3-55.2-83-55.5-83.8-.4-1.2 13.5-1.4 94.7-1.4 94.2 0 95.3 0 98.9-2.1 5.8-3.2 8.6-8.2 8.6-15l-.1-5.7-155.7-233.6c-85.6-128.4-155.3-233.7-154.9-233.9 1.4-.8 31.9 6.3 46.7 10.8C704.9 317.3 785 404.3 797.1 508c.8 7.2 1 17.1.5 31.5-.4 11.5-.7 22.5-.6 24.4.2 9.8 11.2 17.1 21.3 14.2 9.5-2.8 41.2-40.4 59.6-70.9 20.6-34.2 35.3-74.9 40.7-113 2.4-17.2 2.9-51.9 1-70.1-5.2-48.4-21.5-92.5-50.1-135.6C802.9 88.1 680.2 19.4 540.5 4c-34-3.7-59.7-4.5-89-2.9zM377.2 514c5 1.4 9.7 5.5 11.9 10.5 1.7 3.7 1.9 8.1 1.9 69s-.2 65.3-1.9 69c-2.8 6.2-10.4 11.5-16.6 11.5-3.2 0-9-2.5-12-5.1-6.5-5.7-6.5-5.9-6.5-75.4 0-68.2.1-69.3 5.9-74.9 2.7-2.6 8.9-5.5 12.1-5.6.8 0 3.2.5 5.2 1zm215.6 1.6c3.7 1.9 5.9 3.8 7.7 6.8l2.5 4.3v66.7c0 73.8.2 71.1-6.4 76.1-9.7 7.3-22.1 4.4-27.7-6.6-1.9-3.8-1.9-5.9-1.7-70.7l.3-66.8 2.5-3.7c2.7-4.1 10.7-8.7 15-8.7 1.4 0 5 1.2 7.8 2.6z"/></svg>