<?xml version="1.0" encoding="UTF-8" standalone="no"?><!DOCTYPE svg PUBLIC "-//W3C//DTD SVG 1.1//EN" "http://www.w3.org/Graphics/SVG/1.1/DTD/svg11.dtd"><svg width="100%" height="100%" viewBox="0 0 222 240" version="1.1" xmlns="http://www.w3.org/2000/svg" xmlns:xlink="http://www.w3.org/1999/xlink" xml:space="preserve" xmlns:serif="http://www.serif.com/" style="fill-rule:evenodd;clip-rule:evenodd;stroke-linejoin:round;stroke-miterlimit:2;"><path d="M95.108,67.723c-36.546,6.061 -64.104,32.945 -64.104,65.151c0,2.382 0.151,4.735 0.445,7.051c0.226,1.87 -0.763,3.676 -2.459,4.494c-1.697,0.817 -3.725,0.465 -5.047,-0.877c-14.993,-15.089 -23.943,-34.195 -23.943,-54.959c0,-48.89 49.616,-88.583 110.728,-88.583c61.113,0 110.729,39.693 110.729,88.583c0,20.764 -8.95,39.87 -23.936,54.966c-1.325,1.344 -3.358,1.697 -5.058,0.878c-1.7,-0.819 -2.691,-2.63 -2.465,-4.503c0.304,-2.315 0.455,-4.668 0.455,-7.05c0,-32.206 -27.559,-59.09 -64.104,-65.151l77.23,115.844c0.906,1.359 0.99,3.106 0.219,4.547c-0.77,1.44 -2.271,2.339 -3.905,2.339c-15.274,0 -46.35,0 -46.35,0c0,0 18.934,28.401 27.89,41.834c0.906,1.359 0.991,3.107 0.22,4.547c-0.771,1.44 -2.272,2.339 -3.905,2.339c-10.269,0 -27.433,0 -35.704,0c-2.962,0 -5.728,-1.48 -7.371,-3.944c-6.71,-10.067 -23.945,-35.918 -23.945,-35.918c0,0 -17.234,25.851 -23.945,35.918c-1.643,2.464 -4.408,3.944 -7.37,3.944c-8.272,0 -25.435,0 -35.704,0c-1.633,0 -3.134,-0.899 -3.905,-2.339c-0.771,-1.44 -0.686,-3.188 0.22,-4.547c8.955,-13.433 27.889,-41.834 27.889,-41.834l-46.35,0c-1.633,0 -3.134,-0.899 -3.905,-2.339c-0.77,-1.441 -0.686,-3.188 0.22,-4.547l77.23,-115.844Zm-10.953,60.722c2.445,0 4.428,1.982 4.428,4.428c0,7.669 0,23.337 0,31.006c0,2.446 -1.983,4.428 -4.428,4.428c-0.001,0 -0.002,0 -0.003,0c-2.445,0 -4.428,-1.982 -4.428,-4.428c0,-7.669 0,-23.337 0,-31.006c0,-2.446 1.983,-4.428 4.428,-4.428c0.001,0 0.002,0 0.003,0Zm57.567,35.461c0,2.431 -1.971,4.401 -4.402,4.401c0,0 -0.001,0 -0.001,0c-1.182,0 -2.315,-0.469 -3.151,-1.305c-0.835,-0.836 -1.304,-1.969 -1.304,-3.151c0.002,-7.688 0.007,-23.355 0.009,-31.005c0,-2.431 1.971,-4.401 4.402,-4.401c0.001,0 0.001,0 0.001,0c1.182,0 2.315,0.469 3.151,1.305c0.835,0.836 1.304,1.969 1.304,3.151c-0.002,7.688 -0.007,23.355 -0.009,31.005Z" style="fill:#444;"/></svg>